<svg width="396" height="301" viewBox="0 0 396 301" fill="none" xmlns="http://www.w3.org/2000/svg">
<g filter="url(#filter0_dd)">
<rect x="8" y="8" width="380" height="285" rx="5" fill="white"/>
<path d="M102.875 248.689H97.3672L96.2148 252H93.6465L99.0176 237.781H101.234L106.615 252H104.037L102.875 248.689ZM98.0605 246.697H102.182L100.121 240.799L98.0605 246.697ZM108.236 252V237.781H112.436C113.692 237.781 114.805 238.061 115.775 238.621C116.752 239.181 117.507 239.975 118.041 241.004C118.575 242.033 118.842 243.211 118.842 244.539V245.252C118.842 246.6 118.572 247.785 118.031 248.807C117.497 249.829 116.732 250.617 115.736 251.17C114.747 251.723 113.611 252 112.328 252H108.236ZM110.707 239.773V250.027H112.318C113.614 250.027 114.607 249.624 115.297 248.816C115.993 248.003 116.348 246.837 116.361 245.32V244.529C116.361 242.986 116.026 241.808 115.355 240.994C114.685 240.18 113.712 239.773 112.436 239.773H110.707ZM121.303 252V237.781H125.502C126.758 237.781 127.872 238.061 128.842 238.621C129.818 239.181 130.574 239.975 131.107 241.004C131.641 242.033 131.908 243.211 131.908 244.539V245.252C131.908 246.6 131.638 247.785 131.098 248.807C130.564 249.829 129.799 250.617 128.803 251.17C127.813 251.723 126.677 252 125.395 252H121.303ZM123.773 239.773V250.027H125.385C126.68 250.027 127.673 249.624 128.363 248.816C129.06 248.003 129.415 246.837 129.428 245.32V244.529C129.428 242.986 129.092 241.808 128.422 240.994C127.751 240.18 126.778 239.773 125.502 239.773H123.773ZM150.629 252H148.158L141.82 241.912V252H139.35V237.781H141.82L148.178 247.908V237.781H150.629V252ZM161.859 245.652H156.02V250.027H162.846V252H153.549V237.781H162.777V239.773H156.02V243.699H161.859V245.652ZM176.01 248.484L178.197 237.781H180.648L177.367 252H175.004L172.299 241.619L169.535 252H167.162L163.881 237.781H166.332L168.539 248.465L171.254 237.781H173.324L176.01 248.484ZM187.436 252V237.781H191.635C192.891 237.781 194.005 238.061 194.975 238.621C195.951 239.181 196.706 239.975 197.24 241.004C197.774 242.033 198.041 243.211 198.041 244.539V245.252C198.041 246.6 197.771 247.785 197.23 248.807C196.697 249.829 195.932 250.617 194.936 251.17C193.946 251.723 192.81 252 191.527 252H187.436ZM189.906 239.773V250.027H191.518C192.813 250.027 193.806 249.624 194.496 248.816C195.193 248.003 195.548 246.837 195.561 245.32V244.529C195.561 242.986 195.225 241.808 194.555 240.994C193.884 240.18 192.911 239.773 191.635 239.773H189.906ZM208.246 248.689H202.738L201.586 252H199.018L204.389 237.781H206.605L211.986 252H209.408L208.246 248.689ZM203.432 246.697H207.553L205.492 240.799L203.432 246.697ZM221.039 248.338C221.039 247.713 220.818 247.231 220.375 246.893C219.939 246.554 219.148 246.212 218.002 245.867C216.856 245.522 215.945 245.138 215.268 244.715C213.972 243.901 213.324 242.84 213.324 241.531C213.324 240.385 213.79 239.441 214.721 238.699C215.658 237.957 216.872 237.586 218.363 237.586C219.353 237.586 220.235 237.768 221.01 238.133C221.785 238.497 222.393 239.018 222.836 239.695C223.279 240.366 223.5 241.111 223.5 241.932H221.039C221.039 241.189 220.805 240.61 220.336 240.193C219.874 239.77 219.21 239.559 218.344 239.559C217.536 239.559 216.908 239.731 216.459 240.076C216.016 240.421 215.795 240.903 215.795 241.521C215.795 242.042 216.036 242.479 216.518 242.83C216.999 243.175 217.794 243.514 218.9 243.846C220.007 244.171 220.896 244.546 221.566 244.969C222.237 245.385 222.729 245.867 223.041 246.414C223.354 246.954 223.51 247.589 223.51 248.318C223.51 249.503 223.054 250.447 222.143 251.15C221.238 251.847 220.007 252.195 218.451 252.195C217.423 252.195 216.475 252.007 215.609 251.629C214.75 251.245 214.079 250.717 213.598 250.047C213.122 249.376 212.885 248.595 212.885 247.703H215.355C215.355 248.51 215.622 249.135 216.156 249.578C216.69 250.021 217.455 250.242 218.451 250.242C219.311 250.242 219.955 250.07 220.385 249.725C220.821 249.373 221.039 248.911 221.039 248.338ZM236.967 252H234.506V245.682H228.148V252H225.678V237.781H228.148V243.699H234.506V237.781H236.967V252ZM239.896 252V237.781H244.77C246.378 237.781 247.602 238.104 248.441 238.748C249.281 239.393 249.701 240.353 249.701 241.629C249.701 242.28 249.525 242.866 249.174 243.387C248.822 243.908 248.308 244.311 247.631 244.598C248.399 244.806 248.992 245.2 249.408 245.779C249.831 246.352 250.043 247.042 250.043 247.85C250.043 249.184 249.613 250.21 248.754 250.926C247.901 251.642 246.677 252 245.082 252H239.896ZM242.367 245.584V250.027H245.111C245.886 250.027 246.492 249.835 246.928 249.451C247.364 249.067 247.582 248.533 247.582 247.85C247.582 246.372 246.827 245.617 245.316 245.584H242.367ZM242.367 243.768H244.789C245.557 243.768 246.156 243.595 246.586 243.25C247.022 242.898 247.24 242.404 247.24 241.766C247.24 241.062 247.038 240.555 246.635 240.242C246.238 239.93 245.616 239.773 244.77 239.773H242.367V243.768ZM263.861 245.262C263.861 246.655 263.62 247.879 263.139 248.934C262.657 249.982 261.967 250.789 261.068 251.355C260.176 251.915 259.148 252.195 257.982 252.195C256.83 252.195 255.801 251.915 254.896 251.355C253.998 250.789 253.301 249.985 252.807 248.943C252.318 247.902 252.071 246.701 252.064 245.34V244.539C252.064 243.152 252.309 241.928 252.797 240.867C253.292 239.806 253.985 238.995 254.877 238.436C255.775 237.869 256.804 237.586 257.963 237.586C259.122 237.586 260.147 237.866 261.039 238.426C261.938 238.979 262.631 239.78 263.119 240.828C263.607 241.87 263.855 243.084 263.861 244.471V245.262ZM261.391 244.52C261.391 242.944 261.091 241.736 260.492 240.896C259.9 240.057 259.057 239.637 257.963 239.637C256.895 239.637 256.059 240.057 255.453 240.896C254.854 241.73 254.548 242.911 254.535 244.441V245.262C254.535 246.824 254.838 248.032 255.443 248.885C256.055 249.738 256.902 250.164 257.982 250.164C259.076 250.164 259.916 249.747 260.502 248.914C261.094 248.081 261.391 246.863 261.391 245.262V244.52ZM274.066 248.689H268.559L267.406 252H264.838L270.209 237.781H272.426L277.807 252H275.229L274.066 248.689ZM269.252 246.697H273.373L271.312 240.799L269.252 246.697ZM284.652 246.521H281.898V252H279.428V237.781H284.428C286.068 237.781 287.335 238.149 288.227 238.885C289.118 239.62 289.564 240.685 289.564 242.078C289.564 243.029 289.333 243.826 288.871 244.471C288.415 245.109 287.777 245.6 286.957 245.945L290.15 251.873V252H287.504L284.652 246.521ZM281.898 244.539H284.438C285.271 244.539 285.922 244.331 286.391 243.914C286.859 243.491 287.094 242.915 287.094 242.186C287.094 241.424 286.876 240.835 286.439 240.418C286.01 240.001 285.365 239.786 284.506 239.773H281.898V244.539ZM291.908 252V237.781H296.107C297.364 237.781 298.477 238.061 299.447 238.621C300.424 239.181 301.179 239.975 301.713 241.004C302.247 242.033 302.514 243.211 302.514 244.539V245.252C302.514 246.6 302.243 247.785 301.703 248.807C301.169 249.829 300.404 250.617 299.408 251.17C298.419 251.723 297.283 252 296 252H291.908ZM294.379 239.773V250.027H295.99C297.286 250.027 298.279 249.624 298.969 248.816C299.665 248.003 300.02 246.837 300.033 245.32V244.529C300.033 242.986 299.698 241.808 299.027 240.994C298.357 240.18 297.383 239.773 296.107 239.773H294.379Z" fill="#2780E3"/>
<path d="M244.667 88.6666V108.6C244.667 108.6 231.4 108.667 231.333 108.6V88.6666H211.333C211.333 88.6666 211.4 75.3999 211.333 75.3333H231.333V55.3333H244.667V75.3333H264.667V88.6666H244.667ZM224.667 115.333V95.3333H204.667V75.3333H151.333C144 75.3333 138 81.3333 138 88.6666V168.667C138 176 144 182 151.333 182H231.333C238.667 182 244.667 176 244.667 168.667V115.333H224.667ZM151.333 168.667L171.333 142L184.667 162L204.667 135.333L231.333 168.667H151.333Z" fill="#2780E3"/>
</g>
<defs>
<filter id="filter0_dd" x="0" y="0" width="396" height="301" filterUnits="userSpaceOnUse" color-interpolation-filters="sRGB">
<feFlood flood-opacity="0" result="BackgroundImageFix"/>
<feColorMatrix in="SourceAlpha" type="matrix" values="0 0 0 0 0 0 0 0 0 0 0 0 0 0 0 0 0 0 127 0"/>
<feOffset dx="-4" dy="-4"/>
<feGaussianBlur stdDeviation="2"/>
<feColorMatrix type="matrix" values="0 0 0 0 0 0 0 0 0 0 0 0 0 0 0 0 0 0 0.25 0"/>
<feBlend mode="normal" in2="BackgroundImageFix" result="effect1_dropShadow"/>
<feColorMatrix in="SourceAlpha" type="matrix" values="0 0 0 0 0 0 0 0 0 0 0 0 0 0 0 0 0 0 127 0"/>
<feOffset dx="4" dy="4"/>
<feGaussianBlur stdDeviation="2"/>
<feColorMatrix type="matrix" values="0 0 0 0 0 0 0 0 0 0 0 0 0 0 0 0 0 0 0.25 0"/>
<feBlend mode="normal" in2="effect1_dropShadow" result="effect2_dropShadow"/>
<feBlend mode="normal" in="SourceGraphic" in2="effect2_dropShadow" result="shape"/>
</filter>
</defs>
</svg>
