<svg viewBox="0 0 100 89" fill="currentColor" xmlns="http://www.w3.org/2000/svg">
<path d="M88.4444 5.61111C87.3333 2.33333 84.2222 0 80.5555 0H19.4444C15.7778 0 12.7222 2.33333 11.5556 5.61111L0 38.8889V83.3333C0 86.3889 2.5 88.8889 5.55556 88.8889H11.1111C14.1667 88.8889 16.6667 86.3889 16.6667 83.3333V77.7778H83.3333V83.3333C83.3333 86.3889 85.8333 88.8889 88.8889 88.8889H94.4444C97.5 88.8889 100 86.3889 100 83.3333V38.8889L88.4444 5.61111ZM19.4444 61.1111C14.8333 61.1111 11.1111 57.3889 11.1111 52.7778C11.1111 48.1667 14.8333 44.4444 19.4444 44.4444C24.0556 44.4444 27.7778 48.1667 27.7778 52.7778C27.7778 57.3889 24.0556 61.1111 19.4444 61.1111ZM80.5555 61.1111C75.9444 61.1111 72.2222 57.3889 72.2222 52.7778C72.2222 48.1667 75.9444 44.4444 80.5555 44.4444C85.1667 44.4444 88.8889 48.1667 88.8889 52.7778C88.8889 57.3889 85.1667 61.1111 80.5555 61.1111ZM11.1111 33.3333L19.4444 8.33333H80.5555L88.8889 33.3333H11.1111Z" />
</svg>
