<svg width="40" height="40" viewBox="0 0 40 40" fill="none" xmlns="http://www.w3.org/2000/svg">
<path fill-rule="evenodd" clip-rule="evenodd" d="M40 29.6667C40 35.3736 35.3736 40 29.6667 40H17C11.2931 40 6.66667 35.3736 6.66667 29.6667V20C6.66667 12.6362 12.6362 6.66667 20 6.66667H29.6667C35.3736 6.66667 40 11.2931 40 17V29.6667ZM29.6667 37C33.7168 37 37 33.7168 37 29.6667V17C37 12.9499 33.7168 9.66667 29.6667 9.66667L20 9.66667C14.2931 9.66667 9.66667 14.2931 9.66667 20L9.66667 29.6667C9.66667 33.7168 12.9499 37 17 37H29.6667Z" fill="#333333"/>
<path fill-rule="evenodd" clip-rule="evenodd" d="M0 10.3333C0 4.62639 4.62639 0 10.3333 0H23C28.7069 0 33.3333 4.62639 33.3333 10.3333V20C33.3333 27.3638 27.3638 33.3333 20 33.3333H10.3333C4.62639 33.3333 0 28.7069 0 23V10.3333ZM20 30.3333C25.7069 30.3333 30.3333 25.7069 30.3333 20C30.3333 14.2931 25.7069 9.66667 20 9.66667C14.2931 9.66667 9.66667 14.2931 9.66667 20C9.66667 25.7069 14.2931 30.3333 20 30.3333Z" fill="#333333"/>
<path d="M26.3684 23.7131L23.3215 20.6399C23.0354 20.3528 22.6674 20.1632 22.269 20.0978C21.8707 20.0324 21.4621 20.0945 21.1005 20.2753L18.3265 17.4792V15.8569L14.9977 13.3379L13.3333 15.0166L15.8308 18.376H17.4446L20.2186 21.1722C20.0393 21.5368 19.9777 21.949 20.0426 22.3508C20.1074 22.7526 20.2953 23.1238 20.58 23.4123L23.6251 26.4783C23.7151 26.5693 23.822 26.6414 23.9396 26.6907C24.0573 26.74 24.1835 26.7653 24.3109 26.7653C24.4383 26.7653 24.5645 26.74 24.6822 26.6907C24.7998 26.6414 24.9067 26.5693 24.9967 26.4783L26.3684 25.0948C26.5491 24.9111 26.6506 24.6628 26.6506 24.4039C26.6506 24.1451 26.5491 23.8968 26.3684 23.7131ZM21.9607 19.2345C22.3227 19.2335 22.6814 19.305 23.0158 19.4449C23.3502 19.5847 23.6537 19.7902 23.9088 20.0493L24.4148 20.5579C24.8391 20.3746 25.2253 20.1124 25.5533 19.785C26.0108 19.3239 26.3421 18.7511 26.5151 18.1225C26.688 17.4938 26.6966 16.8308 26.54 16.1978C26.5263 16.1439 26.4986 16.0947 26.4599 16.0551C26.4211 16.0154 26.3727 15.9869 26.3195 15.9723C26.2662 15.9576 26.2101 15.9575 26.1568 15.9718C26.1035 15.9861 26.0549 16.0144 26.016 16.0538L24.0805 18.006L22.3149 17.7089L22.0203 15.928L23.9558 13.9758C23.9947 13.936 24.0225 13.8864 24.0364 13.8322C24.0502 13.778 24.0495 13.7211 24.0345 13.6672C24.0194 13.6133 23.9905 13.5644 23.9507 13.5255C23.9108 13.4865 23.8615 13.4589 23.8076 13.4454C23.1806 13.2884 22.524 13.2975 21.9014 13.4718C21.2789 13.6462 20.7117 13.9799 20.2547 14.4406C19.9032 14.797 19.6271 15.2217 19.4429 15.6888C19.2587 16.1559 19.1703 16.6558 19.1831 17.1584L21.3191 19.3202C21.5293 19.2694 21.7446 19.2437 21.9607 19.2437V19.2345ZM19.25 21.3854L17.7753 19.898L13.8104 23.9081C13.53 24.2284 13.3811 24.6444 13.3942 25.0715C13.4073 25.4986 13.5814 25.9045 13.8809 26.2066C14.1804 26.5088 14.5829 26.6843 15.0063 26.6975C15.4298 26.7108 15.8422 26.5606 16.1597 26.2778L19.3747 23.035C19.1696 22.5136 19.1243 21.9422 19.2445 21.3945L19.25 21.3854ZM14.9887 25.7145C14.8649 25.7149 14.7437 25.6781 14.6406 25.609C14.5375 25.5398 14.4571 25.4413 14.4095 25.326C14.362 25.2107 14.3494 25.0838 14.3735 24.9612C14.3976 24.8387 14.4572 24.7262 14.5447 24.6379C14.6323 24.5496 14.7439 24.4895 14.8653 24.4652C14.9868 24.4409 15.1127 24.4536 15.227 24.5015C15.3413 24.5495 15.4389 24.6306 15.5075 24.7346C15.5761 24.8386 15.6125 24.9608 15.6121 25.0857C15.6117 25.2507 15.5471 25.409 15.4322 25.5266C15.3173 25.6442 15.1613 25.7117 14.9977 25.7145H14.9887Z" fill="#333333"/>
</svg>
