<svg width="40" height="40" viewBox="0 0 40 40" fill="none" xmlns="http://www.w3.org/2000/svg">
<path fill-rule="evenodd" clip-rule="evenodd" d="M40 29.6667C40 35.3736 35.3736 40 29.6667 40H17C11.2931 40 6.66667 35.3736 6.66667 29.6667V20C6.66667 12.6362 12.6362 6.66667 20 6.66667H29.6667C35.3736 6.66667 40 11.2931 40 17V29.6667ZM29.6667 37C33.7168 37 37 33.7168 37 29.6667V17C37 12.9499 33.7168 9.66667 29.6667 9.66667L20 9.66667C14.2931 9.66667 9.66667 14.2931 9.66667 20L9.66667 29.6667C9.66667 33.7168 12.9499 37 17 37H29.6667Z" fill="#333333"/>
<path fill-rule="evenodd" clip-rule="evenodd" d="M0 10.3333C0 4.62639 4.62639 0 10.3333 0H23C28.7069 0 33.3333 4.62639 33.3333 10.3333V20C33.3333 27.3638 27.3638 33.3333 20 33.3333H10.3333C4.62639 33.3333 0 28.7069 0 23V10.3333ZM20 30.3333C25.7069 30.3333 30.3333 25.7069 30.3333 20C30.3333 14.2931 25.7069 9.66667 20 9.66667C14.2931 9.66667 9.66667 14.2931 9.66667 20C9.66667 25.7069 14.2931 30.3333 20 30.3333Z" fill="#FF7518"/>
<path d="M20.0002 11.5C15.2136 11.5 11.3335 15.3801 11.3335 20.1667C11.3335 21.7556 11.7623 23.2439 12.5089 24.5241C12.6777 24.8136 12.9994 24.9815 13.3347 24.9815H26.6657C27.0009 24.9815 27.3226 24.8136 27.4914 24.5241C28.238 23.2439 28.6668 21.7556 28.6668 20.1667C28.6668 15.3801 24.7867 11.5 20.0002 11.5ZM21.6589 23.0556H18.3415C18.1759 22.7712 18.0742 22.4453 18.0742 22.0926C18.0742 21.7294 18.1808 21.3935 18.3556 21.1038L15.0891 16.7485C14.8498 16.4292 14.9145 15.9763 15.2335 15.737C15.5537 15.4987 16.0057 15.5634 16.2449 15.8815L19.5118 20.2371C19.6685 20.1959 19.8304 20.1667 20.0005 20.1667C21.0642 20.1667 21.9264 21.0288 21.9264 22.0926C21.9261 22.4453 21.8244 22.7712 21.6589 23.0556Z" fill="#333333"/>
</svg>
