<svg width="40" height="40" viewBox="0 0 40 40" fill="none" xmlns="http://www.w3.org/2000/svg">
<path fill-rule="evenodd" clip-rule="evenodd" d="M40 29.6667C40 35.3736 35.3736 40 29.6667 40H17C11.2931 40 6.66667 35.3736 6.66667 29.6667V20C6.66667 12.6362 12.6362 6.66667 20 6.66667H29.6667C35.3736 6.66667 40 11.2931 40 17V29.6667ZM29.6667 37C33.7168 37 37 33.7168 37 29.6667V17C37 12.9499 33.7168 9.66667 29.6667 9.66667L20 9.66667C14.2931 9.66667 9.66667 14.2931 9.66667 20L9.66667 29.6667C9.66667 33.7168 12.9499 37 17 37H29.6667Z" fill="#333333"/>
<path fill-rule="evenodd" clip-rule="evenodd" d="M0 10.3333C0 4.62639 4.62639 0 10.3333 0H23C28.7069 0 33.3333 4.62639 33.3333 10.3333V20C33.3333 27.3638 27.3638 33.3333 20 33.3333H10.3333C4.62639 33.3333 0 28.7069 0 23V10.3333ZM20 30.3333C25.7069 30.3333 30.3333 25.7069 30.3333 20C30.3333 14.2931 25.7069 9.66667 20 9.66667C14.2931 9.66667 9.66667 14.2931 9.66667 20C9.66667 25.7069 14.2931 30.3333 20 30.3333Z" fill="#2780E3"/>
<path d="M19.9018 28.1957C21.05 28.1957 21.9612 27.2662 21.9612 26.1363H17.8242C17.8425 27.2662 18.7719 28.1957 19.9018 28.1957ZM26.8636 23.3662C26.244 22.6919 25.0776 21.6895 25.0776 18.3909C25.0776 15.8759 23.3098 13.8712 20.9406 13.3791V12.7048C20.9406 12.1399 20.485 11.666 19.9018 11.666C19.3369 11.666 18.863 12.1216 18.863 12.7048V13.3791C16.4938 13.8712 14.7261 15.8759 14.7261 18.3909C14.7261 21.6895 13.5597 22.7101 12.9401 23.3662C12.7396 23.5667 12.6667 23.8218 12.6667 24.0587C12.6667 24.5872 13.0859 25.0975 13.7055 25.0975H26.0982C26.7178 25.0975 27.137 24.5872 27.137 24.0587C27.137 23.8218 27.0641 23.5667 26.8636 23.3662Z" fill="#333333"/>
</svg>
