<svg width="176" height="36" viewBox="0 0 176 36" fill="none" xmlns="http://www.w3.org/2000/svg">
<path d="M26.5538 36H9.46069C4.237 36 0 31.763 0 26.5393V9.46069C0 4.23699 4.237 0 9.46069 0H26.5393C31.763 0 36 4.23699 36 9.46069V26.5393C36.0145 31.763 31.7775 36 26.5538 36Z" fill="#333333"/>
<path d="M17.6445 12.798H14.3797C13.9734 12.798 13.6397 12.4643 13.6397 12.058V5.65897C13.6397 5.25268 13.3059 4.91895 12.8996 4.91895H4.3386C3.93231 4.91895 3.59857 5.25268 3.59857 5.65897V14.22C3.59857 14.6263 3.93231 14.96 4.3386 14.96H11.6953C12.1016 14.96 12.4353 15.2938 12.4353 15.7001V16.948C12.4353 17.3542 12.1016 17.688 11.6953 17.688H7.69046C7.28418 17.688 6.95044 18.0217 6.95044 18.428V23.1438C6.95044 23.5501 7.28418 23.8839 7.69046 23.8839H12.9867C13.393 23.8839 13.7267 23.5501 13.7267 23.1438V19.5163C13.7267 19.11 14.0605 18.7762 14.4668 18.7762H17.6445C18.0508 18.7762 18.3845 18.4425 18.3845 18.0362V13.538C18.3845 13.1318 18.0653 12.798 17.6445 12.798Z" fill="#FF7518"/>
<path d="M28.8319 2.85852H23.8549C23.4341 2.85852 23.1003 3.19226 23.1003 3.61305V6.42804C23.1003 6.84884 22.7666 7.18258 22.3458 7.18258H20.8803C20.4595 7.18258 20.1257 7.51631 20.1257 7.93711V11.1729C20.1257 11.5937 20.4595 11.9274 20.8803 11.9274H24.1306C24.5514 11.9274 24.8851 11.5937 24.8851 11.1729V10.0991C24.8851 9.67834 25.2188 9.34461 25.6396 9.34461H28.8464C29.2672 9.34461 29.6009 9.01087 29.6009 8.59007V3.61305C29.5864 3.19226 29.2527 2.85852 28.8319 2.85852Z" fill="white"/>
<path d="M9.64932 32.1838H5.60096C5.2382 32.1838 4.948 31.8935 4.948 31.5308V27.8887C4.948 27.3083 5.42684 26.8295 6.00725 26.8295H9.22853C9.80894 26.8295 10.2878 27.3083 10.2878 27.8887V31.5308C10.3023 31.8935 10.0121 32.1838 9.64932 32.1838Z" fill="white"/>
<path d="M25.2333 33.7218C29.8172 33.7218 33.5332 30.0384 33.5332 25.4945C33.5332 20.9507 29.8172 17.2672 25.2333 17.2672C20.6494 17.2672 16.9335 20.9507 16.9335 25.4945C16.9335 30.0384 20.6494 33.7218 25.2333 33.7218Z" fill="white"/>
<path d="M25.2333 19.0811C21.6058 19.0811 18.6457 22.0266 18.6457 25.6687C18.6457 26.8731 18.9649 28.0049 19.5453 28.9771C19.6759 29.1947 19.9226 29.3253 20.1693 29.3253H30.2974C30.5586 29.3253 30.7908 29.1947 30.9214 28.9771C31.4873 28.0049 31.821 26.8731 31.821 25.6687C31.8065 22.0266 28.8609 19.0811 25.2333 19.0811ZM25.2333 20.5466C25.5671 20.5466 25.8428 20.7788 25.9298 21.0835C25.9008 21.1415 25.8718 21.185 25.8573 21.2431L25.6396 21.8815C25.5236 21.9541 25.393 22.0121 25.2333 22.0121C24.8271 22.0121 24.5078 21.6784 24.5078 21.2866C24.4933 20.8803 24.8271 20.5466 25.2333 20.5466ZM20.8367 27.1342C20.4305 27.1342 20.1112 26.8005 20.1112 26.4087C20.1112 26.017 20.445 25.6832 20.8367 25.6832C21.243 25.6832 21.5623 26.017 21.5623 26.4087C21.5623 26.8005 21.243 27.1342 20.8367 27.1342ZM21.9395 23.4777C21.5332 23.4777 21.214 23.1439 21.214 22.7522C21.214 22.3459 21.5477 22.0266 21.9395 22.0266C22.3458 22.0266 22.665 22.3604 22.665 22.7522C22.665 23.1439 22.3458 23.4777 21.9395 23.4777ZM27.5695 21.8235L26.162 26.0315C26.4812 26.2927 26.6844 26.6989 26.6844 27.1342C26.6844 27.3954 26.6118 27.6566 26.4812 27.8598H23.9564C23.8259 27.6421 23.7533 27.3954 23.7533 27.1342C23.7533 26.3652 24.3627 25.7268 25.1173 25.6832L26.5248 21.4752C26.6263 21.185 26.931 21.0254 27.2213 21.127C27.5115 21.2141 27.6711 21.5333 27.5695 21.8235ZM27.9032 23.1294L28.2515 22.0702C28.324 22.0411 28.4111 22.0121 28.4982 22.0121C28.9044 22.0121 29.2237 22.3459 29.2237 22.7376C29.2237 23.1439 28.8899 23.4632 28.4982 23.4632C28.2515 23.4777 28.0338 23.3326 27.9032 23.1294ZM29.6154 27.1342C29.2092 27.1342 28.8899 26.8005 28.8899 26.4087C28.8899 26.017 29.2237 25.6832 29.6154 25.6832C30.0217 25.6832 30.341 26.017 30.341 26.4087C30.341 26.8005 30.0217 27.1342 29.6154 27.1342Z" fill="#FF7518"/>
<path d="M56.7265 12.7445C57.7191 13.3044 58.5081 14.0934 59.0934 15.1114C59.6533 16.1294 59.9587 17.3256 59.9587 18.6745C59.9587 20.0234 59.6788 21.2196 59.0934 22.2376C58.5335 23.2556 57.7445 24.0446 56.7265 24.6045C55.7339 25.1644 54.6141 25.4444 53.3925 25.4444C51.7127 25.4444 50.3893 24.9099 49.4222 23.8664V30.0001H45.63V12.1082H49.2695V13.6353C50.2111 12.49 51.5855 11.9301 53.3925 11.9301C54.6141 11.9046 55.7339 12.1846 56.7265 12.7445ZM55.1486 21.3214C55.7848 20.6596 56.0902 19.7689 56.0902 18.6745C56.0902 17.5547 55.7848 16.6893 55.1486 16.0276C54.5123 15.3659 53.7233 15.035 52.7307 15.035C51.7382 15.035 50.9492 15.3659 50.3129 16.0276C49.6767 16.6893 49.3713 17.5801 49.3713 18.6745C49.3713 19.7943 49.6767 20.6596 50.3129 21.3214C50.9492 21.9831 51.7382 22.3139 52.7307 22.3139C53.7233 22.3139 54.5123 21.9831 55.1486 21.3214Z" fill="#FF7518"/>
<path d="M62.6819 9.6649C62.2493 9.25769 62.0202 8.74867 62.0202 8.13786C62.0202 7.52704 62.2493 7.01803 62.6819 6.61082C63.1146 6.2036 63.6999 6 64.3871 6C65.0997 6 65.6597 6.2036 66.0923 6.58536C66.525 6.96712 66.754 7.47613 66.754 8.0615C66.754 8.69777 66.525 9.23223 66.0923 9.63945C65.6597 10.0467 65.0743 10.2503 64.3871 10.2503C63.6999 10.2757 63.1146 10.0721 62.6819 9.6649ZM62.4783 12.1082H66.2959V25.2407H62.4783V12.1082Z" fill="#FF7518"/>
<path d="M78.2068 25.2407L75.3309 21.2195L72.3532 25.2407H68.1793L73.2439 18.6235L68.3574 12.1082H72.6331L75.4073 15.9512L78.2577 12.1082H82.3044L77.4433 18.5217L82.5334 25.2407H78.2068Z" fill="#FF7518"/>
<path d="M96.7604 19.7434H86.8092C86.9873 20.5578 87.42 21.194 88.0817 21.6776C88.7434 22.1612 89.5833 22.3902 90.5759 22.3902C91.2631 22.3902 91.8739 22.2884 92.4083 22.0848C92.9428 21.8812 93.4264 21.5504 93.8845 21.1177L95.9205 23.3065C94.6734 24.7317 92.8664 25.4443 90.4995 25.4443C89.0234 25.4443 87.7 25.1644 86.5547 24.579C85.4094 23.9936 84.5441 23.2047 83.9078 22.1612C83.297 21.1431 82.9916 19.9724 82.9916 18.6744C82.9916 17.3764 83.297 16.2312 83.9078 15.1877C84.5186 14.1442 85.3585 13.3552 86.4274 12.7699C87.4963 12.1845 88.6925 11.9045 90.016 11.9045C91.3139 11.9045 92.4592 12.1845 93.5027 12.7444C94.5462 13.3043 95.3606 14.0933 95.946 15.1368C96.5313 16.1803 96.8368 17.3764 96.8368 18.7508C96.8368 18.7762 96.8113 19.1071 96.7604 19.7434ZM87.8527 15.5185C87.2673 16.0021 86.911 16.6638 86.7837 17.5291H93.2482C93.121 16.6893 92.7646 16.0276 92.1793 15.544C91.5939 15.035 90.8813 14.8059 90.0414 14.8059C89.1506 14.7805 88.438 15.035 87.8527 15.5185Z" fill="#FF7518"/>
<path d="M99.3819 7.11987H103.2V25.2408H99.3819V7.11987Z" fill="#FF7518"/>
<path d="M117.426 12.9989C118.419 13.5588 119.208 14.3224 119.768 15.3149C120.328 16.3075 120.608 17.4528 120.608 18.7508C120.608 20.0488 120.328 21.194 119.768 22.2121C119.208 23.2046 118.419 23.9936 117.426 24.5535C116.434 25.1134 115.314 25.3934 114.067 25.3934C113.1 25.3934 112.234 25.2153 111.42 24.8335C110.631 24.4517 109.969 23.9173 109.435 23.2046V25.2661H107.195V7.14526H109.537V14.2715C110.046 13.5843 110.707 13.0753 111.496 12.719C112.285 12.3627 113.125 12.1845 114.067 12.1845C115.314 12.1845 116.434 12.439 117.426 12.9989ZM116.103 22.772C116.765 22.3902 117.274 21.8558 117.655 21.1686C118.037 20.4814 118.241 19.6924 118.241 18.7762C118.241 17.8854 118.037 17.0965 117.655 16.3839C117.274 15.6967 116.739 15.1622 116.103 14.7805C115.441 14.3987 114.703 14.2206 113.863 14.2206C113.049 14.2206 112.311 14.3987 111.649 14.7805C110.987 15.1622 110.453 15.6967 110.097 16.3839C109.715 17.071 109.537 17.86 109.537 18.7762C109.537 19.667 109.715 20.456 110.097 21.1686C110.478 21.8558 110.987 22.3902 111.649 22.772C112.311 23.1537 113.049 23.3573 113.863 23.3573C114.703 23.3319 115.441 23.1537 116.103 22.772Z" fill="#333333"/>
<path d="M125.927 24.5281C124.909 23.9682 124.094 23.1792 123.509 22.1612C122.924 21.1686 122.644 20.0233 122.644 18.7508C122.644 17.4782 122.924 16.333 123.509 15.3404C124.094 14.3478 124.883 13.5588 125.927 12.9989C126.97 12.439 128.116 12.1591 129.388 12.1591C130.661 12.1591 131.831 12.439 132.85 12.9989C133.868 13.5588 134.657 14.3478 135.242 15.3404C135.827 16.333 136.107 17.4782 136.107 18.7508C136.107 20.0233 135.827 21.1686 135.242 22.1612C134.657 23.1538 133.868 23.9427 132.85 24.5281C131.831 25.088 130.686 25.3934 129.388 25.3934C128.09 25.3934 126.97 25.1135 125.927 24.5281ZM131.653 22.772C132.315 22.3902 132.824 21.8558 133.206 21.1686C133.588 20.4814 133.766 19.6925 133.766 18.7762C133.766 17.8855 133.588 17.0965 133.206 16.3839C132.824 15.6967 132.315 15.1622 131.653 14.7805C130.992 14.3987 130.254 14.2206 129.414 14.2206C128.574 14.2206 127.836 14.3987 127.174 14.7805C126.512 15.1622 126.003 15.6967 125.622 16.3839C125.24 17.071 125.036 17.86 125.036 18.7762C125.036 19.667 125.24 20.456 125.622 21.1686C126.003 21.8558 126.538 22.3902 127.174 22.772C127.836 23.1538 128.574 23.3574 129.414 23.3574C130.228 23.3319 130.992 23.1538 131.653 22.772Z" fill="#333333"/>
<path d="M148.094 13.4825C149.036 14.3732 149.52 15.6712 149.52 17.4273V25.2407H147.306V23.5355C146.924 24.1463 146.364 24.6044 145.626 24.9098C144.888 25.2152 144.048 25.3934 143.055 25.3934C141.605 25.3934 140.434 25.0371 139.568 24.3499C138.703 23.6373 138.271 22.721 138.271 21.6012C138.271 20.4559 138.678 19.5397 139.518 18.8526C140.357 18.1654 141.655 17.8091 143.488 17.8091H147.178V17.351C147.178 16.3329 146.873 15.5694 146.287 15.0349C145.702 14.5005 144.837 14.2205 143.692 14.2205C142.928 14.2205 142.164 14.3478 141.452 14.6023C140.714 14.8568 140.103 15.1877 139.594 15.6203L138.627 13.8642C139.289 13.3298 140.103 12.9225 141.019 12.6426C141.935 12.3626 142.928 12.2099 143.971 12.2099C145.753 12.1845 147.127 12.6171 148.094 13.4825ZM145.753 22.9756C146.415 22.5683 146.873 22.0084 147.178 21.2704V19.4634H143.564C141.579 19.4634 140.587 20.1251 140.587 21.474C140.587 22.1357 140.841 22.6447 141.35 23.001C141.859 23.3828 142.546 23.5609 143.462 23.5609C144.328 23.5864 145.091 23.3828 145.753 22.9756Z" fill="#333333"/>
<path d="M157.918 12.7699C158.707 12.3882 159.675 12.1846 160.82 12.1846V14.4497C160.693 14.4242 160.514 14.4242 160.285 14.4242C159.013 14.4242 158.02 14.806 157.282 15.5695C156.57 16.333 156.188 17.402 156.188 18.8017V25.2408H153.846V12.2864H156.086V14.4497C156.519 13.7116 157.13 13.1517 157.918 12.7699Z" fill="#333333"/>
<path d="M175.81 7.11981V25.2407H173.571V23.1792C173.062 23.8918 172.4 24.4517 171.586 24.808C170.797 25.1898 169.906 25.368 168.939 25.368C167.692 25.368 166.572 25.088 165.579 24.5281C164.587 23.9682 163.798 23.2046 163.238 22.1866C162.678 21.194 162.398 20.0233 162.398 18.7253C162.398 17.4273 162.678 16.2821 163.238 15.2895C163.798 14.2969 164.587 13.5334 165.579 12.9735C166.572 12.4136 167.692 12.1336 168.939 12.1336C169.855 12.1336 170.72 12.3118 171.509 12.6681C172.298 13.0244 172.934 13.5334 173.469 14.2206V7.09436H175.81V7.11981ZM171.356 22.772C172.018 22.3902 172.553 21.8558 172.909 21.1686C173.291 20.4814 173.469 19.6925 173.469 18.7762C173.469 17.8855 173.291 17.0965 172.909 16.3839C172.527 15.6967 172.018 15.1622 171.356 14.7805C170.695 14.3987 169.957 14.2206 169.142 14.2206C168.302 14.2206 167.564 14.3987 166.903 14.7805C166.241 15.1622 165.732 15.6967 165.35 16.3839C164.968 17.071 164.765 17.86 164.765 18.7762C164.765 19.667 164.968 20.456 165.35 21.1686C165.732 21.8558 166.266 22.3902 166.903 22.772C167.564 23.1537 168.302 23.3574 169.142 23.3574C169.957 23.3319 170.695 23.1537 171.356 22.772Z" fill="#333333"/>
</svg>
