<svg width="155" height="114" viewBox="0 0 155 114" fill="none" xmlns="http://www.w3.org/2000/svg">
<path d="M13.2004 92.3912C14.3811 93.0879 15.3197 94.0695 16.0161 95.3361C16.6821 96.6027 17.0454 98.0909 17.0454 99.7692C17.0454 101.447 16.7124 102.936 16.0161 104.202C15.35 105.469 14.4114 106.45 13.2004 107.147C12.0196 107.844 10.6875 108.192 9.23421 108.192C7.23598 108.192 5.66163 107.527 4.51114 106.229V113.86H0V91.5996H4.32948V93.4995C5.4497 92.0746 7.0846 91.378 9.23421 91.378C10.6875 91.3463 12.0196 91.6946 13.2004 92.3912ZM11.3233 103.062C12.0802 102.239 12.4435 101.131 12.4435 99.7692C12.4435 98.3759 12.0802 97.2993 11.3233 96.476C10.5664 95.6527 9.6278 95.2411 8.44703 95.2411C7.26626 95.2411 6.3277 95.6527 5.5708 96.476C4.8139 97.2993 4.45058 98.4076 4.45058 99.7692C4.45058 101.162 4.8139 102.239 5.5708 103.062C6.3277 103.886 7.26626 104.297 8.44703 104.297C9.6278 104.297 10.5664 103.886 11.3233 103.062Z" fill="#FF7518"/>
<path d="M20.2849 88.5597C19.7702 88.0531 19.4977 87.4198 19.4977 86.6598C19.4977 85.8999 19.7702 85.2666 20.2849 84.76C20.7996 84.2533 21.496 84 22.3134 84C23.1611 84 23.8272 84.2533 24.3419 84.7283C24.8566 85.2033 25.1291 85.8366 25.1291 86.5648C25.1291 87.3565 24.8566 88.0214 24.3419 88.5281C23.8272 89.0347 23.1309 89.288 22.3134 89.288C21.496 89.3197 20.7996 89.0664 20.2849 88.5597ZM20.0427 91.5996H24.5841V107.939H20.0427V91.5996Z" fill="#FF7518"/>
<path d="M38.7533 107.939L35.3321 102.936L31.7898 107.939H26.8245L32.8495 99.7058L27.0365 91.5996H32.1229L35.4229 96.381L38.8139 91.5996H43.6278L37.845 99.5792L43.9002 107.939H38.7533Z" fill="#FF7518"/>
<path d="M60.8246 101.099H48.9867C49.1986 102.112 49.7133 102.904 50.5005 103.506C51.2876 104.107 52.2867 104.392 53.4675 104.392C54.285 104.392 55.0116 104.266 55.6474 104.012C56.2832 103.759 56.8584 103.347 57.4034 102.809L59.8255 105.532C58.342 107.305 56.1924 108.192 53.3767 108.192C51.6207 108.192 50.0463 107.844 48.6839 107.115C47.3215 106.387 46.2921 105.405 45.5352 104.107C44.8086 102.841 44.4452 101.384 44.4452 99.7691C44.4452 98.1542 44.8086 96.7293 45.5352 95.4311C46.2618 94.1328 47.2609 93.1512 48.5325 92.4229C49.8041 91.6946 51.2271 91.3463 52.8014 91.3463C54.3455 91.3463 55.7079 91.6946 56.9493 92.3912C58.1906 93.0879 59.1594 94.0695 59.8558 95.3677C60.5521 96.666 60.9154 98.1542 60.9154 99.8641C60.9154 99.8958 60.8852 100.307 60.8246 101.099ZM50.228 95.8427C49.5316 96.4443 49.1078 97.2676 48.9564 98.3442H56.6465C56.4951 97.2993 56.0713 96.476 55.3749 95.8744C54.6786 95.2411 53.8308 94.9561 52.8317 94.9561C51.7721 94.9244 50.9243 95.2411 50.228 95.8427Z" fill="#FF7518"/>
<path d="M63.9431 85.3933H68.4845V107.939H63.9431V85.3933Z" fill="#FF7518"/>
<path d="M85.4089 92.7078C86.5896 93.4044 87.5282 94.3544 88.1943 95.5893C88.8603 96.8242 89.1934 98.2491 89.1934 99.864C89.1934 101.479 88.8603 102.904 88.1943 104.17C87.5282 105.405 86.5896 106.387 85.4089 107.084C84.2281 107.78 82.8959 108.129 81.4124 108.129C80.2619 108.129 79.2325 107.907 78.2637 107.432C77.3251 106.957 76.538 106.292 75.9022 105.405V107.97H73.2379V85.4249H76.0233V94.291C76.6288 93.4361 77.416 92.8028 78.3545 92.3595C79.2931 91.9162 80.2922 91.6945 81.4124 91.6945C82.8959 91.6945 84.2281 92.0112 85.4089 92.7078ZM83.8345 104.867C84.6217 104.392 85.2272 103.727 85.6813 102.872C86.1355 102.017 86.3777 101.036 86.3777 99.8957C86.3777 98.7874 86.1355 97.8058 85.6813 96.9192C85.2272 96.0643 84.5914 95.3993 83.8345 94.9243C83.0473 94.4494 82.1693 94.2277 81.1702 94.2277C80.2014 94.2277 79.3234 94.4494 78.5362 94.9243C77.749 95.3993 77.1132 96.0643 76.6894 96.9192C76.2352 97.7742 76.0233 98.7558 76.0233 99.8957C76.0233 101.004 76.2352 101.986 76.6894 102.872C77.1435 103.727 77.749 104.392 78.5362 104.867C79.3234 105.342 80.2014 105.595 81.1702 105.595C82.1693 105.564 83.0473 105.342 83.8345 104.867Z" fill="#333333"/>
<path d="M95.521 107.052C94.31 106.355 93.3412 105.374 92.6448 104.107C91.9485 102.872 91.6154 101.447 91.6154 99.8641C91.6154 98.2809 91.9485 96.8559 92.6448 95.621C93.3412 94.3861 94.2797 93.4045 95.521 92.7078C96.7624 92.0112 98.1248 91.6629 99.6386 91.6629C101.152 91.6629 102.545 92.0112 103.756 92.7078C104.967 93.4045 105.906 94.3861 106.602 95.621C107.298 96.8559 107.631 98.2809 107.631 99.8641C107.631 101.447 107.298 102.872 106.602 104.107C105.906 105.342 104.967 106.324 103.756 107.052C102.545 107.749 101.183 108.129 99.6386 108.129C98.0945 108.129 96.7624 107.78 95.521 107.052ZM102.333 104.867C103.12 104.392 103.726 103.727 104.18 102.872C104.634 102.017 104.846 101.036 104.846 99.8958C104.846 98.7875 104.634 97.8059 104.18 96.9193C103.726 96.0643 103.12 95.3994 102.333 94.9244C101.546 94.4494 100.668 94.2278 99.6689 94.2278C98.6698 94.2278 97.7917 94.4494 97.0046 94.9244C96.2174 95.3994 95.6119 96.0643 95.1577 96.9193C94.7036 97.7742 94.4614 98.7558 94.4614 99.8958C94.4614 101.004 94.7036 101.986 95.1577 102.872C95.6119 103.727 96.2477 104.392 97.0046 104.867C97.7917 105.342 98.6698 105.595 99.6689 105.595C100.638 105.564 101.546 105.342 102.333 104.867Z" fill="#333333"/>
<path d="M121.892 93.3094C123.012 94.4177 123.587 96.0326 123.587 98.2175V107.939H120.953V105.817C120.499 106.577 119.833 107.147 118.955 107.527C118.077 107.907 117.078 108.129 115.897 108.129C114.171 108.129 112.778 107.685 111.749 106.83C110.72 105.944 110.205 104.804 110.205 103.411C110.205 101.986 110.689 100.846 111.688 99.9907C112.688 99.1358 114.232 98.6925 116.412 98.6925H120.802V98.1225C120.802 96.8559 120.438 95.906 119.742 95.241C119.046 94.576 118.016 94.2277 116.654 94.2277C115.745 94.2277 114.837 94.3861 113.989 94.7027C113.111 95.0194 112.385 95.431 111.779 95.9693L110.629 93.7844C111.416 93.1195 112.385 92.6128 113.475 92.2645C114.565 91.9162 115.745 91.7262 116.987 91.7262C119.106 91.6945 120.741 92.2328 121.892 93.3094ZM119.106 105.12C119.893 104.614 120.438 103.917 120.802 102.999V100.751H116.502C114.141 100.751 112.96 101.574 112.96 103.252C112.96 104.076 113.263 104.709 113.868 105.152C114.474 105.627 115.291 105.849 116.381 105.849C117.411 105.88 118.319 105.627 119.106 105.12Z" fill="#333333"/>
<path d="M133.578 92.4229C134.517 91.9479 135.667 91.6946 137.03 91.6946V94.5128C136.878 94.4811 136.666 94.4811 136.394 94.4811C134.88 94.4811 133.699 94.9561 132.821 95.906C131.973 96.856 131.519 98.1859 131.519 99.9275V107.939H128.734V91.8213H131.398V94.5128C131.913 93.5945 132.64 92.8979 133.578 92.4229Z" fill="#333333"/>
<path d="M154.862 85.3932V107.939H152.198V105.374C151.592 106.26 150.805 106.957 149.836 107.4C148.898 107.875 147.838 108.097 146.688 108.097C145.204 108.097 143.872 107.749 142.691 107.052C141.51 106.355 140.572 105.405 139.906 104.139C139.24 102.904 138.907 101.447 138.907 99.8324C138.907 98.2175 139.24 96.7926 139.906 95.5577C140.572 94.3227 141.51 93.3728 142.691 92.6762C143.872 91.9795 145.204 91.6312 146.688 91.6312C147.778 91.6312 148.807 91.8529 149.746 92.2962C150.684 92.7395 151.441 93.3728 152.077 94.2277V85.3616H154.862V85.3932ZM149.564 104.867C150.351 104.392 150.987 103.727 151.411 102.872C151.865 102.017 152.077 101.036 152.077 99.8958C152.077 98.7875 151.865 97.8059 151.411 96.9193C150.957 96.0643 150.351 95.3994 149.564 94.9244C148.777 94.4494 147.899 94.2277 146.93 94.2277C145.931 94.2277 145.053 94.4494 144.266 94.9244C143.478 95.3994 142.873 96.0643 142.419 96.9193C141.965 97.7742 141.722 98.7558 141.722 99.8958C141.722 101.004 141.965 101.986 142.419 102.872C142.873 103.727 143.509 104.392 144.266 104.867C145.053 105.342 145.931 105.595 146.93 105.595C147.899 105.564 148.777 105.342 149.564 104.867Z" fill="#333333"/>
<path d="M98.2592 80.3399H60.1131C48.4556 80.3399 39 70.8843 39 59.2268V21.1131C39 9.45556 48.4556 0 60.1131 0H98.2268C109.884 0 119.34 9.45556 119.34 21.1131V59.2268C119.372 70.8843 109.917 80.3399 98.2592 80.3399Z" fill="#333333"/>
<path d="M78.3766 28.5609H71.0907C70.184 28.5609 69.4392 27.8161 69.4392 26.9094V12.6289C69.4392 11.7222 68.6944 10.9774 67.7877 10.9774H48.6823C47.7756 10.9774 47.0308 11.7222 47.0308 12.6289V31.7344C47.0308 32.641 47.7756 33.3858 48.6823 33.3858H65.1C66.0067 33.3858 66.7515 34.1306 66.7515 35.0373V37.8222C66.7515 38.7289 66.0067 39.4737 65.1 39.4737H56.1626C55.2559 39.4737 54.5111 40.2185 54.5111 41.1252V51.6493C54.5111 52.556 55.2559 53.3008 56.1626 53.3008H67.982C68.8887 53.3008 69.6335 52.556 69.6335 51.6493V43.5538C69.6335 42.6471 70.3783 41.9023 71.285 41.9023H78.3766C79.2833 41.9023 80.0281 41.1575 80.0281 40.2508V30.2124C80.0281 29.3057 79.3157 28.5609 78.3766 28.5609Z" fill="#FF7518"/>
<path d="M103.343 6.37933H92.2361C91.297 6.37933 90.5522 7.12412 90.5522 8.0632V14.3453C90.5522 15.2844 89.8075 16.0292 88.8684 16.0292H85.5978C84.6587 16.0292 83.9139 16.774 83.9139 17.7131V24.9343C83.9139 25.8733 84.6587 26.6181 85.5978 26.6181H92.8514C93.7905 26.6181 94.5352 25.8733 94.5352 24.9343V22.538C94.5352 21.5989 95.28 20.8541 96.2191 20.8541H103.376C104.315 20.8541 105.059 20.1093 105.059 19.1702V8.0632C105.027 7.12412 104.282 6.37933 103.343 6.37933Z" fill="white"/>
<path d="M60.5341 71.8234H51.4995C50.6899 71.8234 50.0423 71.1757 50.0423 70.3662V62.2383C50.0423 60.943 51.1109 59.8744 52.4062 59.8744H59.595C60.8903 59.8744 61.9589 60.943 61.9589 62.2383V70.3662C61.9913 71.1757 61.3436 71.8234 60.5341 71.8234Z" fill="white"/>
<path d="M95.3124 75.256C105.542 75.256 113.835 67.0357 113.835 56.8954C113.835 46.7551 105.542 38.5347 95.3124 38.5347C85.0827 38.5347 76.7899 46.7551 76.7899 56.8954C76.7899 67.0357 85.0827 75.256 95.3124 75.256Z" fill="white"/>
<path d="M95.3124 42.5825C87.2169 42.5825 80.611 49.156 80.611 57.2839C80.611 59.9717 81.3234 62.4975 82.6187 64.6671C82.9101 65.1528 83.4606 65.4442 84.0111 65.4442H106.614C107.197 65.4442 107.715 65.1528 108.006 64.6671C109.269 62.4975 110.014 59.9717 110.014 57.2839C109.982 49.156 103.408 42.5825 95.3124 42.5825ZM95.3124 45.8531C96.0572 45.8531 96.6725 46.3712 96.8668 47.0512C96.802 47.1807 96.7372 47.2779 96.7049 47.4074L96.2191 48.8322C95.9601 48.9941 95.6686 49.1237 95.3124 49.1237C94.4057 49.1237 93.6933 48.3789 93.6933 47.5046C93.6609 46.5979 94.4057 45.8531 95.3124 45.8531ZM85.5007 60.5545C84.594 60.5545 83.8816 59.8097 83.8816 58.9354C83.8816 58.0611 84.6264 57.3163 85.5007 57.3163C86.4074 57.3163 87.1198 58.0611 87.1198 58.9354C87.1198 59.8097 86.4074 60.5545 85.5007 60.5545ZM87.9617 52.3943C87.055 52.3943 86.3426 51.6495 86.3426 50.7752C86.3426 49.8685 87.0874 49.156 87.9617 49.156C88.8684 49.156 89.5808 49.9008 89.5808 50.7752C89.5808 51.6495 88.8684 52.3943 87.9617 52.3943ZM100.526 48.7027L97.3849 58.0935C98.0973 58.6764 98.5506 59.5831 98.5506 60.5545C98.5506 61.1374 98.3887 61.7203 98.0973 62.1736H92.4628C92.1714 61.6879 92.0095 61.1374 92.0095 60.5545C92.0095 58.8383 93.3695 57.4135 95.0534 57.3163L98.1944 47.9255C98.4211 47.2779 99.1011 46.9217 99.7488 47.1484C100.396 47.3427 100.753 48.0551 100.526 48.7027ZM101.271 51.6171L102.048 49.2532C102.21 49.1884 102.404 49.1237 102.598 49.1237C103.505 49.1237 104.217 49.8685 104.217 50.7428C104.217 51.6495 103.473 52.3619 102.598 52.3619C102.048 52.3943 101.562 52.0704 101.271 51.6171ZM105.092 60.5545C104.185 60.5545 103.473 59.8097 103.473 58.9354C103.473 58.0611 104.218 57.3163 105.092 57.3163C105.999 57.3163 106.711 58.0611 106.711 58.9354C106.711 59.8097 105.999 60.5545 105.092 60.5545Z" fill="#FF7518"/>
</svg>
