<svg viewBox="0 0 72 144" fill="currentColor" xmlns="http://www.w3.org/2000/svg">
<path d="M54.0002 108C54.0002 117.941 45.9413 126 36.0002 126C26.0591 126 18.0002 117.941 18.0002 108C18.0002 98.0589 26.0591 90 36.0002 90C45.9413 90 54.0002 98.0589 54.0002 108ZM63.0002 84.1913C68.6004 90.5372 72.0002 98.8709 72.0002 108C72.0002 127.883 55.8837 144 36.0002 144C35.9161 144 35.8289 144 35.7445 143.999C15.9721 143.862 -0.10019 127.585 0.000778312 107.812C0.0469033 98.7567 3.4385 90.4936 9.00021 84.1913V27C9.00021 12.0884 21.0886 0 36.0002 0C50.9118 0 63.0002 12.0884 63.0002 27V84.1913ZM58.5002 108C58.5002 98.3422 53.0524 93.3216 49.5002 89.2963V27C49.5002 19.5562 43.444 13.5 36.0002 13.5C28.5564 13.5 22.5002 19.5562 22.5002 27V89.2963C18.9193 93.3542 13.5494 98.3244 13.5005 107.881C13.4375 120.221 23.5026 130.414 35.8382 130.499L36.0002 130.5C48.4067 130.5 58.5002 120.407 58.5002 108Z" />
</svg>
