<svg viewBox="0 0 144 112" fill="currentColor" xmlns="http://www.w3.org/2000/svg">
<path d="M104 72C104 76.4175 107.582 80 112 80C116.418 80 120 76.4175 120 72C120 67.5825 116.418 64 112 64C107.582 64 104 67.5825 104 72ZM56 80C56 82.93 56.845 85.6375 58.22 88H85.7825C87.1575 85.6375 88.0025 82.93 88.0025 80C88.0025 77.0825 87.1625 74.385 85.8 72.03L104.738 47.6825C106.778 45.065 106.3 41.295 103.69 39.265C101.05 37.2225 97.3 37.7025 95.2675 40.315L76.3275 64.665C74.9425 64.275 73.51 63.9975 72.0025 63.9975C63.1625 64 56 71.1625 56 80ZM80 32C80 27.5825 76.4175 24 72 24C67.5825 24 64 27.5825 64 32C64 36.4175 67.5825 40 72 40C76.4175 40 80 36.4175 80 32ZM32 64C27.5825 64 24 67.5825 24 72C24 76.4175 27.5825 80 32 80C36.4175 80 40 76.4175 40 72C40 67.5825 36.4175 64 32 64ZM44 52C48.4175 52 52 48.4175 52 44C52 39.5825 48.4175 36 44 36C39.5825 36 36 39.5825 36 44C36 48.4175 39.5825 52 44 52ZM0 72C0 85.2 3.5625 97.565 9.765 108.2C11.1675 110.605 13.84 112 16.625 112H127.375C130.16 112 132.833 110.605 134.235 108.2C140.438 97.565 144 85.2 144 72C144 32.235 111.765 0 72 0C32.235 0 0 32.235 0 72ZM12 72C12 38.915 38.915 12 72 12C105.085 12 132 38.915 132 72C132 81.78 129.61 91.4075 125.067 100H18.9325C14.39 91.4075 12 81.78 12 72Z" />
</svg>
