<svg width="144" height="128" viewBox="0 0 144 128" fill="currentColor" xmlns="http://www.w3.org/2000/svg">
<path d="M127.625 56.375C125.9 47.075 117.8 40 108 40C104.925 40 102.025 40.75 99.425 42C95.075 35.975 88.025 32 80 32C66.75 32 56 42.75 56 56C56 56.125 56.05 56.275 56.05 56.4C46.9 58.25 40 66.3 40 76C40 87.05 48.95 96 60 96H124C135.05 96 144 87.05 144 76C144 66.2 136.95 58.075 127.625 56.375ZM31.025 64.975C21.675 55.625 21.675 40.4 31.025 31.025C39.675 22.375 53.3 21.825 62.7 29.175C67.7 25.95 73.6 24 80 24C80.175 24 80.325 24.05 80.5 24.05L82.725 17.375C83.575 14.825 81.15 12.425 78.6 13.275L59.775 19.55L50.9 1.8C49.7 -0.6 46.275 -0.6 45.075 1.8L36.2 19.55L17.375 13.275C14.825 12.425 12.425 14.85 13.275 17.4L19.55 36.225L1.8 45.1C-0.6 46.3 -0.6 49.725 1.8 50.925L19.55 59.8L13.275 78.625C12.425 81.175 14.85 83.575 17.4 82.75L32.2 77.825C32.15 77.225 32.025 76.65 32.025 76.025C32.025 72.9 32.6 69.9 33.575 67.05C32.675 66.375 31.8 65.75 31.025 64.975ZM48.475 50.475C49.55 44.35 52.425 38.875 56.45 34.475C54 32.925 51.1 32 48 32C39.175 32 32 39.175 32 48C32 52.675 34.05 56.85 37.275 59.775C40.1 55.8 43.925 52.55 48.475 50.475ZM131.125 104.525C129.225 103.45 126.775 104.075 125.675 106.025L116.525 122.025C115.425 123.95 116.1 126.375 118.025 127.475C118.65 127.825 119.325 128 120 128C121.375 128 122.725 127.275 123.475 125.975L132.625 109.975C133.7 108.05 133.05 105.625 131.125 104.525ZM107.125 104.525C105.225 103.45 102.775 104.075 101.675 106.025L92.525 122.025C91.425 123.95 92.1 126.375 94.025 127.475C94.65 127.825 95.325 128 96 128C97.375 128 98.725 127.275 99.475 125.975L108.625 109.975C109.7 108.05 109.05 105.625 107.125 104.525ZM83.125 104.525C81.225 103.45 78.775 104.075 77.675 106.025L68.525 122.025C67.425 123.95 68.1 126.375 70.025 127.475C70.65 127.825 71.325 128 72 128C73.375 128 74.725 127.275 75.475 125.975L84.625 109.975C85.7 108.05 85.05 105.625 83.125 104.525ZM59.125 104.525C57.225 103.45 54.775 104.075 53.675 106.025L44.525 122.025C43.425 123.95 44.1 126.375 46.025 127.475C46.65 127.825 47.325 128 48 128C49.375 128 50.725 127.275 51.475 125.975L60.625 109.975C61.7 108.05 61.05 105.625 59.125 104.525Z" />
</svg>
