<svg width="144" height="144" viewBox="0 0 144 144" fill="currentColor" xmlns="http://www.w3.org/2000/svg">
<path d="M141.525 97.0875L130.661 91.6031L139.018 89.6344C141.654 89.0156 143.229 86.625 142.521 84.3187L141.236 80.1281C140.529 77.8219 137.796 76.4437 135.161 77.0625L112.404 82.4062L91.8643 72L112.371 61.6219L135.129 66.9656C137.764 67.5844 140.496 66.2062 141.204 63.9L142.489 59.7094C143.196 57.4031 141.621 55.0125 138.986 54.3937L130.629 52.425L141.493 46.9406C143.871 45.7312 144.675 43.0875 143.325 41.0063L138.343 33.4688C136.961 31.3875 133.939 30.6844 131.561 31.8656L120.696 37.35L122.946 30.0375C123.654 27.7313 122.079 25.3406 119.443 24.7219L114.654 23.5969C112.018 22.9781 109.286 24.3563 108.579 26.6625L102.471 46.575L82.2857 56.7563V34.9594L99.5465 19.8562C101.539 18.1125 101.539 15.2437 99.5465 13.5L95.9143 10.3219C93.9215 8.57812 90.6429 8.57812 88.65 10.3219L82.2857 15.8625V4.5C82.2857 2.025 79.9715 0 77.1429 0H66.8572C64.0286 0 61.7143 2.025 61.7143 4.5V15.8625L55.3822 10.3219C53.3893 8.57812 50.1107 8.57812 48.1179 10.3219L44.4536 13.5C42.4286 15.2437 42.4286 18.1125 44.4536 19.8562L61.7143 34.9594V56.7563L41.5286 46.575L35.4215 26.6625C34.7143 24.3563 31.9822 22.9781 29.3465 23.5969L24.5572 24.7219C21.9215 25.3406 20.3465 27.7313 21.0536 30.0375L23.3036 37.35L12.4393 31.8656C10.0607 30.6562 7.03931 31.3875 5.65717 33.4688L0.675026 40.9781C-0.707117 43.0594 0.128597 45.7031 2.50717 46.9125L13.3715 52.3969L5.01431 54.3656C2.34645 54.9844 0.771454 57.375 1.4786 59.7094L2.76431 63.9C3.47145 66.2062 6.2036 67.5844 8.83931 66.9656L31.5965 61.6219L52.1036 72L31.5965 82.3781L8.83931 77.0344C6.2036 76.4156 3.47145 77.7937 2.76431 80.1L1.4786 84.2906C0.771454 86.5969 2.34645 88.9875 4.98217 89.6063L13.3393 91.575L2.47503 97.0875C0.096454 98.2969 -0.707117 100.941 0.642883 103.022L5.62503 110.559C7.00717 112.641 10.0286 113.344 12.4072 112.162L23.2715 106.678L21.0215 113.991C20.3143 116.297 21.8893 118.688 24.525 119.306L29.3143 120.431C31.95 121.05 34.6822 119.672 35.3893 117.366L41.4965 97.4531L61.6822 87.2719V109.069L44.4215 124.172C42.3965 125.916 42.3965 128.784 44.4215 130.528L48.0536 133.706C50.0465 135.45 53.325 135.45 55.3179 133.706L61.65 128.166V139.5C61.65 141.975 63.9643 144 66.7929 144H77.0786C79.9072 144 82.2215 141.975 82.2215 139.5V128.137L88.5536 133.678C90.5465 135.422 93.825 135.422 95.8179 133.678L99.45 130.5C101.443 128.756 101.443 125.887 99.45 124.144L82.2857 109.041V87.2438L102.471 97.425L108.579 117.338C109.286 119.644 112.018 121.022 114.654 120.403L119.443 119.278C122.079 118.659 123.654 116.269 122.946 113.963L120.696 106.65L131.561 112.134C133.939 113.344 136.961 112.613 138.343 110.531L143.325 102.994C144.707 100.941 143.904 98.2688 141.525 97.0875Z" />
</svg>
