<svg width="144" height="144" viewBox="0 0 144 144" fill="currentColor" xmlns="http://www.w3.org/2000/svg">
<path d="M72 45C57.1219 45 45 57.1219 45 72C45 86.8781 57.1219 99 72 99C86.8781 99 99 86.8781 99 72C99 57.1219 86.8781 45 72 45ZM141.3 67.6406L114.666 54.3375L124.088 26.1C125.353 22.275 121.725 18.6469 117.928 19.9406L89.6906 29.3625L76.3594 2.7C74.5594 -0.9 69.4406 -0.9 67.6406 2.7L54.3375 29.3344L26.0719 19.9125C22.2469 18.6469 18.6188 22.275 19.9125 26.0719L29.3344 54.3094L2.7 67.6406C-0.9 69.4406 -0.9 74.5594 2.7 76.3594L29.3344 89.6625L19.9125 117.928C18.6469 121.753 22.275 125.381 26.0719 124.088L54.3094 114.666L67.6125 141.3C69.4125 144.9 74.5313 144.9 76.3313 141.3L89.6344 114.666L117.872 124.088C121.697 125.353 125.325 121.725 124.031 117.928L114.609 89.6906L141.244 76.3875C144.9 74.5594 144.9 69.4406 141.3 67.6406ZM97.4531 97.4531C83.4188 111.488 60.5813 111.488 46.5469 97.4531C32.5125 83.4187 32.5125 60.5812 46.5469 46.5469C60.5813 32.5125 83.4188 32.5125 97.4531 46.5469C111.488 60.5812 111.488 83.4187 97.4531 97.4531Z" />
</svg>
