<svg width="144" height="144" viewBox="0 0 144 144" fill="currentColor" xmlns="http://www.w3.org/2000/svg">
<path d="M117 36C116.831 36 116.691 36.0562 116.55 36.0562C116.859 34.5938 117 33.075 117 31.5C117 19.0688 106.931 9 94.5 9C87.5813 9 81.4781 12.1781 77.3438 17.1C72.1125 6.975 61.6781 0 49.5 0C32.0906 0 18 14.0906 18 31.5C18 33.5531 18.225 35.5219 18.5906 37.4625C7.81875 41.0062 0 51.0469 0 63C0 77.9062 12.0938 90 27 90H117C131.906 90 144 77.9062 144 63C144 48.0938 131.906 36 117 36ZM24.75 105.244C21.15 117.731 13.5 121.106 13.5 129.909C13.5 137.7 19.5469 144 27 144C34.4531 144 40.5 137.7 40.5 129.909C40.5 121.078 32.85 117.788 29.25 105.244C28.6313 102.966 25.4531 102.853 24.75 105.244ZM69.75 105.244C66.15 117.731 58.5 121.106 58.5 129.909C58.5 137.7 64.5469 144 72 144C79.4531 144 85.5 137.7 85.5 129.909C85.5 121.078 77.85 117.788 74.25 105.244C73.6312 102.966 70.4531 102.853 69.75 105.244ZM114.75 105.244C111.15 117.731 103.5 121.106 103.5 129.909C103.5 137.7 109.547 144 117 144C124.453 144 130.5 137.7 130.5 129.909C130.5 121.078 122.85 117.788 119.25 105.244C118.631 102.966 115.453 102.853 114.75 105.244Z" />
</svg>
