<svg width="144" height="144" viewBox="0 0 144 144" fill="currentColor" xmlns="http://www.w3.org/2000/svg">
<path d="M51.7218 104.091C49.5843 102.853 46.828 103.584 45.5905 105.778L27.5905 137.278C26.353 139.444 27.1124 142.2 29.278 143.409C29.9812 143.803 30.7405 144 31.4999 144C33.0468 144 34.5655 143.184 35.4093 141.722L53.4093 110.222C54.6468 108.084 53.8874 105.328 51.7218 104.091ZM78.7218 104.091C76.5843 102.853 73.828 103.584 72.5905 105.778L54.5905 137.278C53.353 139.444 54.1124 142.2 56.278 143.409C56.9812 143.803 57.7405 144 58.4999 144C60.0468 144 61.5655 143.184 62.4093 141.722L80.4093 110.222C81.6468 108.084 80.8874 105.328 78.7218 104.091ZM24.7218 104.091C22.5843 102.853 19.828 103.584 18.5905 105.778L0.590539 137.278C-0.646961 139.444 0.112415 142.2 2.27804 143.409C2.98116 143.803 3.74054 144 4.49991 144C6.04679 144 7.56554 143.184 8.40929 141.722L26.4093 110.222C27.6468 108.084 26.8874 105.328 24.7218 104.091ZM132.722 104.091C130.584 102.853 127.828 103.584 126.591 105.778L108.591 137.278C107.353 139.444 108.112 142.2 110.278 143.409C110.981 143.803 111.741 144 112.5 144C114.047 144 115.566 143.184 116.409 141.722L134.409 110.222C135.647 108.084 134.887 105.328 132.722 104.091ZM105.722 104.091C103.584 102.853 100.828 103.584 99.5905 105.778L81.5905 137.278C80.353 139.444 81.1124 142.2 83.278 143.409C83.9812 143.803 84.7405 144 85.4999 144C87.0468 144 88.5655 143.184 89.4093 141.722L107.409 110.222C108.647 108.084 107.887 105.328 105.722 104.091ZM117 36C116.831 36 116.691 36.0562 116.55 36.0562C116.859 34.5938 117 33.075 117 31.5C117 19.0688 106.931 9 94.4999 9C87.5812 9 81.478 12.1781 77.3437 17.1C72.1124 6.975 61.678 0 49.4999 0C32.1187 0 17.9999 14.0906 17.9999 31.5C17.9999 33.5531 18.2249 35.5219 18.5905 37.4625C7.81866 41.0062 -8.57366e-05 51.0469 -8.57366e-05 63C-8.57366e-05 77.9062 12.0937 90 26.9999 90H117C131.906 90 144 77.9062 144 63C144 48.0938 131.906 36 117 36Z" />
</svg>
