<svg width="144" height="144" viewBox="0 0 144 144" fill="currentColor" xmlns="http://www.w3.org/2000/svg">
<path d="M27 90H117C131.906 90 144 77.9062 144 63C144 48.0938 131.906 36 117 36C116.831 36 116.691 36.0562 116.55 36.0562C116.859 34.5938 117 33.075 117 31.5C117 19.0688 106.931 9 94.5 9C87.5813 9 81.4781 12.1781 77.3438 17.1C72.1125 6.975 61.6781 0 49.5 0C32.0906 0 18 14.0906 18 31.5C18 33.5531 18.225 35.5219 18.5906 37.4625C7.81875 41.0062 0 51.0469 0 63C0 77.9062 12.0938 90 27 90ZM35.6906 109.434L33.4406 105.525C32.8219 104.456 31.4438 104.091 30.375 104.709L22.5 109.237V101.25C22.5 100.012 21.4875 99 20.25 99H15.75C14.5125 99 13.5 100.012 13.5 101.25V109.237L5.625 104.709C4.55625 104.091 3.17813 104.456 2.55938 105.525L0.309375 109.434C-0.309375 110.503 0.05625 111.881 1.125 112.5L8.97188 117L1.125 121.5C0.05625 122.119 -0.309375 123.497 0.309375 124.566L2.55938 128.475C3.17813 129.544 4.55625 129.909 5.625 129.291L13.5 124.763V132.75C13.5 133.988 14.5125 135 15.75 135H20.25C21.4875 135 22.5 133.988 22.5 132.75V124.763L30.375 129.291C31.4438 129.909 32.8219 129.544 33.4406 128.475L35.6906 124.566C36.3094 123.497 35.9437 122.119 34.875 121.5L27.0281 117L34.875 112.5C35.9437 111.881 36.3094 110.503 35.6906 109.434ZM89.6906 118.434L87.4406 114.525C86.8219 113.456 85.4437 113.091 84.375 113.709L76.5 118.237V110.25C76.5 109.012 75.4875 108 74.25 108H69.75C68.5125 108 67.5 109.012 67.5 110.25V118.237L59.625 113.709C58.5563 113.091 57.1781 113.456 56.5594 114.525L54.3094 118.434C53.6906 119.503 54.0563 120.881 55.125 121.5L62.9719 126L55.125 130.5C54.0563 131.119 53.6906 132.497 54.3094 133.566L56.5594 137.475C57.1781 138.544 58.5563 138.909 59.625 138.291L67.5 133.762V141.75C67.5 142.988 68.5125 144 69.75 144H74.25C75.4875 144 76.5 142.988 76.5 141.75V133.762L84.375 138.291C85.4437 138.909 86.8219 138.544 87.4406 137.475L89.6906 133.566C90.3094 132.497 89.9437 131.119 88.875 130.5L81.0281 126L88.875 121.5C89.9437 120.881 90.3094 119.503 89.6906 118.434ZM143.691 109.434L141.441 105.525C140.822 104.456 139.444 104.091 138.375 104.709L130.5 109.237V101.25C130.5 100.012 129.488 99 128.25 99H123.75C122.512 99 121.5 100.012 121.5 101.25V109.237L113.625 104.709C112.556 104.091 111.178 104.456 110.559 105.525L108.309 109.434C107.691 110.503 108.056 111.881 109.125 112.5L116.972 117L109.125 121.5C108.056 122.119 107.691 123.497 108.309 124.566L110.559 128.475C111.178 129.544 112.556 129.909 113.625 129.291L121.5 124.763V132.75C121.5 133.988 122.512 135 123.75 135H128.25C129.488 135 130.5 133.988 130.5 132.75V124.763L138.375 129.291C139.444 129.909 140.822 129.544 141.441 128.475L143.691 124.566C144.309 123.497 143.944 122.119 142.875 121.5L135.028 117L142.875 112.5C143.944 111.881 144.309 110.503 143.691 109.434Z" />
</svg>
