<svg width="144" height="116" viewBox="0 0 144 116" fill="currentColor" xmlns="http://www.w3.org/2000/svg">
<path d="M140.4 82.8H18C16.02 82.8 14.4 84.42 14.4 86.4V90C14.4 91.98 16.02 93.6 18 93.6H140.4C142.38 93.6 144 91.98 144 90V86.4C144 84.42 142.38 82.8 140.4 82.8ZM32.4 104.4H3.6C1.62 104.4 0 106.02 0 108V111.6C0 113.58 1.62 115.2 3.6 115.2H32.4C34.38 115.2 36 113.58 36 111.6V108C36 106.02 34.38 104.4 32.4 104.4ZM126 104.4H50.4C48.42 104.4 46.8 106.02 46.8 108V111.6C46.8 113.58 48.42 115.2 50.4 115.2H126C127.98 115.2 129.6 113.58 129.6 111.6V108C129.6 106.02 127.98 104.4 126 104.4ZM32.4 64.8H67.5225C72.585 69.2325 79.1325 72 86.4 72C93.6675 72 100.192 69.2325 105.277 64.8H118.8C132.727 64.8 144 53.5275 144 39.6C144 25.6725 132.727 14.4 118.8 14.4C114.75 14.4 110.992 15.435 107.617 17.1225C102.15 6.975 91.53 0 79.2 0C69.975 0 61.695 3.8925 55.8 10.08C49.905 3.8925 41.625 0 32.4 0C14.5125 0 0 14.5125 0 32.4C0 50.2875 14.5125 64.8 32.4 64.8Z" />
</svg>
