<svg width="144" height="128" viewBox="0 0 144 128" fill="currentColor" xmlns="http://www.w3.org/2000/svg">
<path d="M85.7 88.175C87.125 85.775 88 83 88 80C88 71.175 80.825 64 72 64C67.7 64 63.8 65.725 60.925 68.475C56.85 61.075 49.05 56 40 56C26.75 56 16 66.75 16 80C16 80.5 16.125 80.95 16.15 81.425C6.775 84.7 0 93.525 0 104C0 117.25 10.75 128 24 128H84C95.05 128 104 119.05 104 108C104 97.525 95.925 89.05 85.7 88.175ZM141.325 74.6C118.05 79.025 96.7 61.175 96.7 37.675C96.7 24.125 103.95 11.675 115.725 4.975C117.55 3.95 117.075 1.2 115.025 0.8C112.1 0.275 109.175 0 106.25 0C79.775 0 58.275 21.475 58.275 48C58.275 50.125 58.45 52.2 58.725 54.25C60.2 55.325 61.625 56.475 62.9 57.8C65.75 56.625 68.825 56 72 56C85.225 56 96 66.775 96 80C96 80.9 95.95 81.8 95.85 82.675C101.75 85.375 106.45 90.05 109.225 95.825C122.825 94.975 135.15 88.5 143.5 78.225C144.825 76.6 143.375 74.2 141.325 74.6Z" />
</svg>
