<svg width="144" height="144" viewBox="0 0 144 144" fill="currentColor" xmlns="http://www.w3.org/2000/svg">
<path d="M51.7219 104.091C49.5844 102.853 46.8281 103.584 45.5906 105.778L27.5906 137.278C26.3531 139.444 27.1125 142.2 29.2781 143.409C29.9812 143.803 30.7406 144 31.5 144C33.0469 144 34.5656 143.184 35.4094 141.722L53.4094 110.222C54.6469 108.084 53.8875 105.328 51.7219 104.091ZM78.525 103.978C76.3031 102.881 73.6031 103.753 72.4781 106.003L67.9781 115.003C66.8812 117.225 67.7531 119.925 70.0031 121.05C70.65 121.359 71.3531 121.528 72.0281 121.528C73.6594 121.528 75.2625 120.628 76.05 119.053L80.55 110.053C81.6188 107.775 80.7469 105.075 78.525 103.978ZM24.525 103.978C22.3031 102.881 19.6031 103.753 18.4781 106.003L13.9781 115.003C12.8813 117.225 13.7531 119.925 16.0031 121.05C16.65 121.359 17.3531 121.528 18.0281 121.528C19.6594 121.528 21.2625 120.628 22.05 119.053L26.55 110.053C27.6187 107.775 26.7469 105.075 24.525 103.978ZM132.525 103.978C130.303 102.881 127.603 103.753 126.478 106.003L121.978 115.003C120.881 117.225 121.753 119.925 124.003 121.05C124.65 121.359 125.353 121.528 126.028 121.528C127.659 121.528 129.262 120.628 130.05 119.053L134.55 110.053C135.619 107.775 134.747 105.075 132.525 103.978ZM105.722 104.091C103.584 102.853 100.828 103.584 99.5906 105.778L81.5906 137.278C80.3531 139.444 81.1125 142.2 83.2781 143.409C83.9813 143.803 84.7406 144 85.5 144C87.0469 144 88.5656 143.184 89.4094 141.722L107.409 110.222C108.647 108.084 107.887 105.328 105.722 104.091ZM117 36C116.831 36 116.691 36.0562 116.55 36.0562C116.859 34.5938 117 33.075 117 31.5C117 19.0688 106.931 9 94.5 9C87.5813 9 81.4781 12.1781 77.3438 17.1C72.1125 6.975 61.6781 0 49.5 0C32.0906 0 18 14.0906 18 31.5C18 33.5531 18.225 35.5219 18.5906 37.4625C7.81875 41.0062 0 51.0469 0 63C0 77.9062 12.0938 90 27 90H117C131.906 90 144 77.9062 144 63C144 48.0938 131.906 36 117 36ZM9 126C4.02187 126 0 130.022 0 135C0 139.978 4.02187 144 9 144C13.9781 144 18 139.978 18 135C18 130.022 13.9781 126 9 126ZM63 126C58.0219 126 54 130.022 54 135C54 139.978 58.0219 144 63 144C67.9781 144 72 139.978 72 135C72 130.022 67.9781 126 63 126ZM117 126C112.022 126 108 130.022 108 135C108 139.978 112.022 144 117 144C121.978 144 126 139.978 126 135C126 130.022 121.978 126 117 126Z" />
</svg>
