<svg width="144" height="128" viewBox="0 0 144 128" fill="currentColor" xmlns="http://www.w3.org/2000/svg">
<path d="M87.625 56.375C85.9 47.075 77.8 40 68 40C64.925 40 62.025 40.75 59.425 42C55.075 35.975 48.025 32 40 32C26.75 32 16 42.75 16 56C16 56.125 16.05 56.275 16.05 56.4C6.9 58.225 0 66.3 0 76C0 87.05 8.95 96 20 96H84C95.05 96 104 87.05 104 76C104 66.2 96.95 58.075 87.625 56.375ZM141.975 55.95C124.375 59.275 108.225 45.875 108.225 28.25C108.225 18.1 113.7 8.75 122.6 3.725C123.975 2.95 123.625 0.875 122.075 0.6C119.9 0.2 117.675 0 115.45 0C95.975 0 80.175 15.3 79.35 34.475C86.025 37.45 91.4 42.925 94.075 49.9C103.35 53.475 110.075 61.75 111.625 71.6C112.9 71.725 114.125 71.975 115.425 71.975C126.6 71.975 136.825 66.925 143.575 58.65C144.625 57.45 143.525 55.65 141.975 55.95ZM91.125 104.525C89.225 103.45 86.775 104.075 85.675 106.025L76.525 122.025C75.425 123.95 76.1 126.375 78.025 127.475C78.65 127.825 79.325 128 80 128C81.375 128 82.725 127.275 83.475 125.975L92.625 109.975C93.7 108.05 93.05 105.625 91.125 104.525ZM67.125 104.525C65.225 103.45 62.775 104.075 61.675 106.025L52.525 122.025C51.425 123.95 52.1 126.375 54.025 127.475C54.65 127.825 55.325 128 56 128C57.375 128 58.725 127.275 59.475 125.975L68.625 109.975C69.7 108.05 69.05 105.625 67.125 104.525ZM43.125 104.525C41.225 103.45 38.775 104.075 37.675 106.025L28.525 122.025C27.425 123.95 28.1 126.375 30.025 127.475C30.65 127.825 31.325 128 32 128C33.375 128 34.725 127.275 35.475 125.975L44.625 109.975C45.7 108.05 45.05 105.625 43.125 104.525ZM19.125 104.525C17.225 103.45 14.775 104.075 13.675 106.025L4.525 122.025C3.425 123.95 4.1 126.375 6.025 127.475C6.65 127.825 7.325 128 8 128C9.375 128 10.725 127.275 11.475 125.975L20.625 109.975C21.7 108.05 21.05 105.625 19.125 104.525Z" />
</svg>
