<svg width="145" height="116" viewBox="0 0 145 116" fill="currentColor" xmlns="http://www.w3.org/2000/svg">
<path d="M116.2 72H115.84C114.175 63.7875 106.908 57.6 98.2 57.6C92.665 57.6 87.7825 60.1425 84.475 64.08C80.29 56.0025 71.92 50.4 62.2 50.4C49.0825 50.4 38.44 60.4575 37.2475 73.26C28.7425 76.1625 22.6 84.1275 22.6 93.6C22.6 105.525 32.275 115.2 44.2 115.2H116.2C128.125 115.2 137.8 105.525 137.8 93.6C137.8 81.675 128.125 72 116.2 72ZM127 36H123.04C121.375 27.7875 114.108 21.6 105.4 21.6C96.6925 21.6 89.425 27.7875 87.76 36H83.8C77.59 36 72.145 39.1275 68.905 43.8975C75.4525 45.2925 81.3925 48.69 85.915 53.64C89.6275 51.525 93.8575 50.3775 98.2 50.3775C108.235 50.3775 117.168 56.3625 121.173 65.205C125.785 66.015 129.97 67.9725 133.548 70.695C140.253 68.0625 145 61.5825 145 53.9775C145 44.055 136.945 36 127 36ZM30.7675 68.22C31.3075 65.9025 32.14 63.7425 33.13 61.6725C31.645 60.7725 30.205 59.76 28.9225 58.4775C20.5075 50.0625 20.5075 36.36 28.9225 27.9225C37.3375 19.5075 51.04 19.5075 59.4775 27.9225C62.2225 30.6675 63.955 33.975 64.9 37.4625C66.2725 35.8875 67.8025 34.47 69.535 33.2775L75.4525 15.6375C76.2175 13.3425 74.035 11.1825 71.74 11.9475L54.7975 17.595L46.81 1.62C45.73 -0.54 42.6475 -0.54 41.5675 1.62L33.58 17.595L16.6375 11.9475C14.3425 11.1825 12.1825 13.365 12.925 15.66L18.5725 32.6025L2.59754 40.59C0.437539 41.67 0.437539 44.7525 2.59754 45.8325L18.5725 53.82L12.925 70.7625C12.16 73.0575 14.3425 75.2175 16.6375 74.475L26.245 71.28C27.6625 70.1325 29.1475 69.075 30.7675 68.22ZM29.8 43.2C29.8 48.465 32.68 53.055 36.9325 55.5525C42.13 48.915 49.8025 44.4825 58.5775 43.515C58.5775 43.4025 58.6 43.3125 58.6 43.2C58.6 35.2575 52.1425 28.8 44.2 28.8C36.2575 28.8 29.8 35.2575 29.8 43.2Z"/>
</svg>
