<svg width="144" height="101" viewBox="0 0 144 101" fill="currentColor" xmlns="http://www.w3.org/2000/svg">
<path d="M120.96 43.985C121.882 41.5775 122.4 38.945 122.4 36.2C122.4 24.275 112.725 14.6 100.8 14.6C96.3675 14.6 92.2275 15.95 88.8075 18.245C82.575 7.44495 70.9425 0.199951 57.6 0.199951C37.71 0.199951 21.6 16.31 21.6 36.2C21.6 36.8075 21.6225 37.415 21.645 38.0225C9.045 42.455 0 54.47 0 68.6C0 86.4875 14.5125 101 32.4 101H115.2C131.107 101 144 88.1075 144 72.2C144 58.2725 134.1 46.64 120.96 43.985Z" />
</svg>
